<?xml version="1.0" encoding="UTF-8"?>
<svg id="Artwork" xmlns="http://www.w3.org/2000/svg" version="1.1" viewBox="0 0 164 164">
  <defs>
    <style>
      .cls-1 {
        fill: #144835;
      }

      .cls-1, .cls-2, .cls-3, .cls-4 {
        stroke-width: 0px;
      }

      .cls-2 {
        fill: #00b48f;
      }

      .cls-3 {
        fill: #ccf0e9;
      }

      .cls-4 {
        fill: #007c57;
      }
    </style>
  </defs>
  <g>
    <path class="cls-4" d="M134.8,131.7h-1.2l-.7,2.3c0,.3-.2.7-.3,1.2h0c-.1-.5-.2-.8-.3-1.2l-.7-2.3h-1.2l-.3,4.6h.8l.2-2.7c0-.4,0-.9,0-1.3h0c0,.4.2,1,.3,1.3l.7,2.6h.8l.7-2.6c.1-.4.2-1,.3-1.4h0c0,.5,0,.9,0,1.3l.2,2.7h.8l-.3-4.6Z"/>
    <polygon class="cls-4" points="126.4 132.5 127.7 132.5 127.7 136.4 128.6 136.4 128.6 132.5 129.9 132.5 129.9 131.7 126.4 131.7 126.4 132.5"/>
  </g>
  <g>
    <circle class="cls-3" cx="82.7" cy="84" r="47.1"/>
    <path class="cls-1" d="M23.9,99.8c-8.7-32.4,10.6-65.9,43-74.6,32.4-8.7,65.9,10.6,74.6,43l-26.6,7.1c-4.8-17.7-23-28.3-40.8-23.5-8.6,2.3-15.8,7.8-20.2,15.5-4.4,7.7-5.6,16.7-3.3,25.3l-26.6,7.1Z"/>
    <path class="cls-2" d="M149.1,64L15.2,99.9l1.1,4.1,16.2-4.3c8.3,26.8,36.4,42.5,63.8,35.2,27.4-7.3,43.9-34.9,37.7-62.3l16.2-4.3-1.1-4.1ZM93.5,124.3c-21.6,5.8-43.8-6.5-50.5-27.5l80.6-21.6c4.7,21.6-8.4,43.3-30.1,49.1Z"/>
  </g>
</svg>